<?xml version="1.0" encoding="utf-8"?>
<!-- Generator: Adobe Illustrator 25.4.0, SVG Export Plug-In . SVG Version: 6.00 Build 0)  -->
<svg version="1.1" id="Layer_1" xmlns="http://www.w3.org/2000/svg" xmlns:xlink="http://www.w3.org/1999/xlink" x="0px" y="0px"
	 viewBox="0 0 100 100" style="enable-background:new 0 0 100 100;" xml:space="preserve">
<style type="text/css">
	.st0{fill:#FAE300;}
	.st1{fill:#391B1B;}
</style>
<g>
	<rect class="st0" width="100" height="100"/>
	<path class="st1" d="M49.63,15.48C28.3,15.48,11.02,29.14,11.02,46c0,10.97,7.32,20.59,18.31,25.97
		c-0.81,3.02-2.92,10.92-3.35,12.61c-0.52,2.1,0.77,2.07,1.62,1.51c0.66-0.44,10.58-7.18,14.86-10.09c2.32,0.34,4.72,0.53,7.17,0.53
		c21.32,0,38.61-13.67,38.61-30.52C88.23,29.14,70.95,15.48,49.63,15.48"/>
	<g>
		<path class="st0" d="M34.09,37.01H22.8c-1.06,0-1.92,0.86-1.92,1.92c0,1.06,0.86,1.92,1.92,1.92h3.67v13.52
			c0,0.49,0.2,0.97,0.55,1.33c0.34,0.35,0.83,0.55,1.32,0.55h0.41c0.49,0,0.97-0.2,1.32-0.55c0.35-0.35,0.55-0.83,0.55-1.33V40.85
			h3.47c1.06,0,1.92-0.86,1.92-1.92C36.01,37.87,35.15,37.01,34.09,37.01z"/>
		<path class="st0" d="M61.22,52.64h-5.25V38.82c0-1.15-0.93-2.08-2.08-2.08c-1.15,0-2.08,0.93-2.08,2.08v14.89
			c0,0.12,0.01,0.22,0.03,0.33c-0.02,0.11-0.03,0.22-0.03,0.33c0,0.96,0.78,1.74,1.74,1.74h7.67c0.97,0,1.74-0.78,1.74-1.74
			C62.96,53.42,62.19,52.64,61.22,52.64z"/>
		<path class="st0" d="M78,53.27l-5.85-7.68l5.29-5.29c0.72-0.71,0.72-1.88,0-2.59c-0.72-0.72-1.88-0.72-2.59,0l-6.54,6.54v-5.43
			c0-1.15-0.93-2.08-2.08-2.08c-1.15,0-2.08,0.93-2.08,2.08v15.35c0,1.15,0.93,2.08,2.08,2.08c1.15,0,2.08-0.93,2.08-2.08v-4.73
			l1.19-1.19l5.53,7.26c0.62,0.82,1.79,0.99,2.61,0.37C78.45,55.26,78.62,54.09,78,53.27z"/>
		<path class="st0" d="M50.25,53.77l-5.63-15.39c0,0-0.01-0.01-0.02-0.02c-0.36-0.94-1.4-1.62-2.64-1.62
			c-1.37,0-2.51,0.84-2.74,1.94c-0.04,0.08-0.08,0.16-0.11,0.25l-5.53,14.84c-0.34,0.97,0.17,2.04,1.14,2.38
			c0.97,0.34,2.04-0.17,2.38-1.14l0.96-2.73h7.7l0.96,2.73c0.34,0.97,1.41,1.48,2.38,1.14C50.08,55.81,50.59,54.74,50.25,53.77z
			 M39.29,48.79l2.59-7.38c0.03,0,0.05,0.01,0.08,0.01l2.59,7.38H39.29z"/>
	</g>
</g>
</svg>
