<?xml version="1.0" encoding="utf-8"?>
<!-- Generator: Adobe Illustrator 25.4.0, SVG Export Plug-In . SVG Version: 6.00 Build 0)  -->
<svg version="1.1" id="레이어_1" xmlns="http://www.w3.org/2000/svg" xmlns:xlink="http://www.w3.org/1999/xlink" x="0px"
	 y="0px" viewBox="0 0 100 100" style="enable-background:new 0 0 100 100;" xml:space="preserve">
<style type="text/css">
	.st0{fill:#49B648;}
	.st1{fill:#FFFFFF;}
</style>
<g>
	<rect class="st0" width="100" height="100"/>
	<path class="st1" d="M22.59,24.96C22.62,41.64,22.6,58.32,22.6,75c6.25,0.04,12.5,0.03,18.75,0.01c0.09-8.27-0.11-16.55,0.11-24.82
		c2.05,2.86,3.92,5.85,6.01,8.69c3.5,5.43,7.46,10.56,10.82,16.08c6.29,0.17,12.58-0.01,18.87,0.1c0.07-0.78,0.14-1.56,0.14-2.35
		c-0.09-15.92,0.07-31.84-0.09-47.76c-6.22-0.05-12.44,0.01-18.66-0.03c-0.05,8.31,0.05,16.64-0.05,24.94
		c-5.78-8.22-11.24-16.69-17.16-24.81C35.1,24.77,28.83,24.97,22.59,24.96z"/>
</g>
</svg>
