<?xml version="1.0" encoding="utf-8"?>
<!-- Generator: Adobe Illustrator 25.4.0, SVG Export Plug-In . SVG Version: 6.00 Build 0)  -->
<svg version="1.1" id="레이어_1" xmlns="http://www.w3.org/2000/svg" xmlns:xlink="http://www.w3.org/1999/xlink" x="0px"
	 y="0px" viewBox="0 0 100 20" style="enable-background:new 0 0 100 20;" xml:space="preserve">
<style type="text/css">
	.st0{fill:#429AD5;}
</style>
<g>
	<g>
		<path class="st0" d="M83.05,12.74c-0.02,0-0.04,0-0.06,0.01l0.1-0.02C83.07,12.73,83.06,12.74,83.05,12.74z"/>
		<path class="st0" d="M14.55,17.55c0,0.67-0.24,1.24-0.72,1.71c-0.48,0.48-1.05,0.71-1.72,0.71H7.29c-2.01,0-3.73-0.71-5.15-2.13
			C0.71,16.43,0,14.72,0,12.72V2.98c0-0.69,0.24-1.26,0.71-1.73c0.47-0.47,1.05-0.7,1.74-0.7c0.66,0,1.24,0.24,1.71,0.71
			c0.48,0.48,0.71,1.05,0.71,1.71V6.5h6.86c0.62,0,1.16,0.22,1.6,0.66c0.45,0.44,0.67,0.97,0.67,1.59c0,0.62-0.22,1.15-0.67,1.59
			c-0.44,0.44-0.98,0.66-1.6,0.66H4.87v1.71c0,0.67,0.23,1.24,0.7,1.71c0.47,0.47,1.04,0.7,1.71,0.7h4.82
			c0.67,0,1.24,0.24,1.72,0.72C14.31,16.32,14.55,16.89,14.55,17.55z"/>
		<path class="st0" d="M71.01,17.55c0,0.67-0.24,1.24-0.72,1.71c-0.48,0.48-1.05,0.71-1.72,0.71h-2.19c-2.01,0-3.72-0.71-5.15-2.13
			c-1.43-1.42-2.14-3.13-2.14-5.13V2.98c0-0.69,0.24-1.26,0.71-1.73c0.48-0.47,1.05-0.7,1.74-0.7c0.66,0,1.24,0.24,1.71,0.71
			c0.48,0.48,0.71,1.05,0.71,1.71V6.5h4.23c0.62,0,1.16,0.22,1.6,0.66c0.45,0.44,0.67,0.97,0.67,1.59c0,0.62-0.22,1.15-0.67,1.59
			c-0.44,0.44-0.98,0.66-1.6,0.66h-4.24v1.71c0,0.67,0.23,1.24,0.7,1.71c0.47,0.47,1.04,0.7,1.71,0.7h2.19
			c0.67,0,1.24,0.24,1.72,0.72C70.78,16.32,71.01,16.89,71.01,17.55z"/>
		<path class="st0" d="M58.27,17.55c0,0.67-0.24,1.24-0.72,1.71c-0.48,0.48-1.05,0.71-1.72,0.71h-2.19c-2.01,0-3.72-0.71-5.15-2.13
			c-1.43-1.42-2.14-3.13-2.14-5.13V2.98c0-0.69,0.24-1.26,0.71-1.73c0.47-0.47,1.05-0.7,1.74-0.7c0.66,0,1.24,0.24,1.71,0.71
			c0.48,0.48,0.71,1.05,0.71,1.71V6.5h4.23c0.62,0,1.16,0.22,1.6,0.66c0.45,0.44,0.67,0.97,0.67,1.59c0,0.62-0.22,1.15-0.67,1.59
			c-0.44,0.44-0.98,0.66-1.6,0.66h-4.24v1.71c0,0.67,0.23,1.24,0.7,1.71c0.47,0.47,1.04,0.7,1.71,0.7h2.19
			c0.67,0,1.24,0.24,1.72,0.72C58.03,16.32,58.27,16.89,58.27,17.55z"/>
		<path class="st0" d="M38.06,13.19c0,1.87-0.67,3.47-2,4.8c-1.33,1.33-2.94,1.99-4.82,1.99c-1.72,0-3.23-0.58-4.54-1.74
			c-1.29,1.16-2.79,1.74-4.51,1.74c-1.88,0-3.48-0.66-4.82-1.99c-1.33-1.33-2-2.93-2-4.8V8.44c0-0.64,0.22-1.18,0.67-1.62
			c0.45-0.44,0.98-0.66,1.61-0.66c0.63,0,1.16,0.22,1.61,0.66c0.45,0.44,0.67,0.98,0.67,1.62v4.75c0,0.63,0.22,1.16,0.66,1.59
			c0.44,0.44,0.97,0.66,1.6,0.66c0.61,0,1.13-0.22,1.57-0.66c0.44-0.44,0.66-0.97,0.66-1.59V8.47c0-0.62,0.22-1.16,0.67-1.62
			c0.45-0.45,1-0.68,1.64-0.68c0.63,0,1.16,0.22,1.61,0.67c0.45,0.45,0.67,0.98,0.67,1.61v4.75c0,0.63,0.22,1.16,0.66,1.59
			c0.44,0.44,0.96,0.66,1.57,0.66c0.63,0,1.16-0.22,1.6-0.66c0.44-0.44,0.66-0.97,0.66-1.59V8.44c0-0.62,0.22-1.16,0.67-1.61
			c0.45-0.45,0.98-0.67,1.61-0.67c0.63,0,1.16,0.22,1.61,0.67c0.45,0.45,0.67,0.98,0.67,1.61V13.19z"/>
		<path class="st0" d="M44.64,2.45c0,0.67-0.24,1.24-0.72,1.71c-0.48,0.48-1.05,0.72-1.72,0.72c-0.67,0-1.24-0.24-1.72-0.72
			c-0.48-0.48-0.72-1.05-0.72-1.71c0-0.67,0.24-1.24,0.72-1.71c0.48-0.48,1.05-0.71,1.72-0.71c0.67,0,1.24,0.24,1.72,0.71
			C44.4,1.21,44.64,1.78,44.64,2.45z"/>
		<path class="st0" d="M44.64,17.55c0,0.67-0.24,1.24-0.72,1.72c-0.48,0.48-1.05,0.71-1.72,0.71c-0.67,0-1.24-0.24-1.72-0.71
			c-0.48-0.48-0.72-1.05-0.72-1.72V8.6c0-0.67,0.24-1.24,0.72-1.72c0.48-0.48,1.05-0.72,1.72-0.72c0.67,0,1.24,0.24,1.72,0.72
			c0.48,0.48,0.72,1.05,0.72,1.72V17.55z"/>
		<path class="st0" d="M100,8.76c0,0.62-0.22,1.15-0.67,1.59c-0.44,0.44-0.98,0.66-1.6,0.66h-3.33c-0.62,0-1.15,0.22-1.58,0.65
			c-0.44,0.43-0.65,0.96-0.65,1.58v4.49c0,0.62-0.22,1.15-0.66,1.59c-0.44,0.44-0.98,0.66-1.6,0.66c-0.62,0-1.15-0.22-1.6-0.66
			c-0.44-0.44-0.66-0.97-0.66-1.59v-4.48c0-1.86,0.66-3.44,1.98-4.76c1.32-1.32,2.91-1.98,4.78-1.98h3.33c0.62,0,1.15,0.22,1.6,0.66
			C99.78,7.61,100,8.14,100,8.76z"/>
		<path class="st0" d="M78.64,19.98c-1.92,0-3.73-0.73-5.15-2.19c-1.42-1.46-1.97-3.05-1.97-5.1c0,0-0.14-6.53,7.25-6.53
			c5.78,0,7.54,4.06,7.54,6.07c0,1.59-0.73,2.16-2.39,2.16h-7.39c0,0-0.27,1.69,3.1,1.69h4.22c1.08,0,1.95,0.87,1.95,1.95
			c0,1.08-0.87,1.95-1.95,1.95H78.64z M76.58,11.27h4.85c0-1.59-2.41-1.59-2.41-1.59S76.58,9.68,76.58,11.27z"/>
	</g>
</g>
</svg>
